<svg xmlns="http://www.w3.org/2000/svg" xmlns:xlink="http://www.w3.org/1999/xlink" xmlns:svgjs="http://svgjs.com/svgjs" version="1.1" width="512" height="512" x="0" y="0" viewBox="0 0 512 512" style="enable-background:new 0 0 512 512" xml:space="preserve" class=""><g><path d="M293.165 78.76V248h24.287a8 8 0 0 1 0 16h-24.287v169.239h24.287a8 8 0 0 1 0 16h-32.287a8 8 0 0 1-8-8V264h-22.451a8 8 0 0 1 0-16h22.451V70.76a8 8 0 0 1 8-8h32.287a8 8 0 0 1 0 16zM512 427.469v63.599c0 11.542-9.391 20.933-20.933 20.933h-123.38c-11.542 0-20.932-9.391-20.932-20.933v-99.655c0-11.543 9.39-20.934 20.932-20.934h37.852c8.196 0 15.54 4.236 19.644 11.333l14.296 24.725h51.59c11.54-.001 20.931 9.39 20.931 20.932zm-149.245-36.057v15.124h58.241l-9.665-16.716c-1.265-2.186-3.268-3.342-5.793-3.342h-37.852a4.938 4.938 0 0 0-4.931 4.934zM496 427.469a4.939 4.939 0 0 0-4.933-4.933H362.755v68.531a4.938 4.938 0 0 0 4.932 4.933h123.381a4.939 4.939 0 0 0 4.933-4.933v-63.598zm16-370.48v63.6c0 11.542-9.391 20.933-20.933 20.933h-123.38c-11.542 0-20.932-9.391-20.932-20.933V20.933C346.755 9.391 356.145 0 367.687 0h37.852c8.197 0 15.541 4.236 19.645 11.333l14.295 24.725h51.59c11.54 0 20.931 9.389 20.931 20.931zM362.755 20.933v15.125h58.241l-9.665-16.716c-1.264-2.186-3.268-3.342-5.793-3.342h-37.852a4.938 4.938 0 0 0-4.931 4.933zM496 56.989a4.938 4.938 0 0 0-4.933-4.932H362.755v68.531a4.938 4.938 0 0 0 4.932 4.933h123.381a4.939 4.939 0 0 0 4.933-4.933V56.989zm16 185.24v63.599c0 11.542-9.391 20.933-20.933 20.933h-123.38c-11.542 0-20.932-9.391-20.932-20.933v-99.656c0-11.542 9.39-20.933 20.932-20.933h37.852c8.196 0 15.54 4.236 19.644 11.333l14.296 24.725h51.59c11.54 0 20.931 9.391 20.931 20.932zm-149.245-36.057v15.125h58.241l-9.665-16.716c-1.265-2.186-3.268-3.342-5.793-3.342h-37.852a4.938 4.938 0 0 0-4.931 4.933zM496 242.229a4.939 4.939 0 0 0-4.933-4.933H362.755v68.531a4.938 4.938 0 0 0 4.932 4.933h123.381a4.939 4.939 0 0 0 4.933-4.933v-63.598zM225.413 133.845v244.898c0 14.439-12.969 25.423-38.546 32.645-19.678 5.557-46.015 8.616-74.159 8.616s-54.482-3.06-74.16-8.616C12.97 404.165 0 393.183 0 378.743V133.846c.004-27.474 56.701-41.849 112.707-41.849 56.007-.001 112.705 14.374 112.706 41.848zM16 133.847v.003c.004 5.647 14.158 14.725 40.904 20.485 16.16 3.067 35.719 4.771 55.803 4.771 20.083 0 39.64-1.704 55.799-4.77 26.747-5.76 40.902-14.838 40.906-20.485v-.005c-.001-8.773-34.135-25.849-96.706-25.849S16.002 125.072 16 133.847zm193.413 244.896v-37.741c-5.9 3.523-13.416 6.583-22.546 9.161-19.678 5.557-46.015 8.616-74.159 8.616s-54.482-3.06-74.16-8.616c-9.131-2.579-16.647-5.639-22.548-9.162v37.742c0 5.954 10.306 12.563 26.896 17.246 18.038 5.094 43.483 8.015 69.813 8.015s51.774-2.921 69.811-8.014c16.588-4.684 26.893-11.293 26.893-17.247zm0-61.224v-37.741c-5.901 3.523-13.416 6.583-22.547 9.161-19.677 5.557-46.014 8.616-74.159 8.616s-54.481-3.06-74.16-8.616C29.416 286.36 21.901 283.3 16 279.777v37.741c0 5.954 10.306 12.563 26.896 17.246 18.038 5.094 43.483 8.015 69.813 8.015s51.774-2.921 69.811-8.014c16.587-4.684 26.893-11.292 26.893-17.246zm0-61.225v-37.741c-5.901 3.523-13.416 6.583-22.547 9.161-19.677 5.557-46.014 8.616-74.159 8.616s-54.481-3.06-74.16-8.616c-9.131-2.578-16.646-5.638-22.547-9.161v37.741c0 5.954 10.306 12.563 26.895 17.247 18.038 5.093 43.483 8.014 69.813 8.014s51.774-2.921 69.812-8.014c16.587-4.685 26.893-11.293 26.893-17.247zm0-61.225v-37.741c-5.901 3.523-13.416 6.583-22.547 9.161-5.367 1.516-11.244 2.838-17.503 3.971-17.326 3.475-37.031 5.243-56.656 5.243-19.626 0-39.333-1.768-56.659-5.244-6.259-1.133-12.135-2.455-17.501-3.97-9.131-2.578-16.646-5.638-22.547-9.161v37.741c0 5.954 10.306 12.563 26.895 17.247 18.038 5.093 43.483 8.014 69.813 8.014s51.774-2.921 69.812-8.014c16.587-4.684 26.893-11.293 26.893-17.247z" fill="#f4faff" data-original="#000000" class="" opacity="1"/></g></svg>