<svg xmlns="http://www.w3.org/2000/svg" xmlns:xlink="http://www.w3.org/1999/xlink" xmlns:svgjs="http://svgjs.com/svgjs" version="1.1" width="512" height="512" x="0" y="0" viewBox="0 0 530.4 530.4" style="enable-background:new 0 0 512 512" xml:space="preserve" class=""><g><path d="M178.5 227.7c0 22.3-18.1 40.4-40.4 40.4-22.3 0-40.4-18.101-40.4-40.4s18.1-40.4 40.4-40.4c22.3 0 40.4 18.1 40.4 40.4zm53.1-3.4c-15.8-4.2-32 5.3-36.1 21.1-4.2 15.8 5.3 32 21.1 36.1 15.8 4.101 31.9-5.3 36.1-21.1 4.1-15.8-5.3-31.9-21.1-36.1zm298.8 40.9c0 146.2-119 265.2-265.2 265.2S0 411.4 0 265.2 119 0 265.2 0c18.9 0 38.2 2.2 57.4 6.4 14.9 3.3 24.9 17.2 23.4 32.3-.5 4.5-.7 9.2-.7 13.8 0 73.1 59.5 132.6 132.601 132.6 4.7 0 9.3-.3 13.8-.7 15.2-1.6 29.1 8.5 32.4 23.4 4.099 19.2 6.299 38.5 6.299 57.4zm-60.1 0c0-6.7-.3-13.4-1-20.2-68.5-3-127.8-42-159.5-98.4-10.699 33.9-42.399 58.6-79.899 58.6-46.2 0-83.7-37.5-83.7-83.7 0-9.1 1.5-17.9 4.2-26.1-54.5 36.9-90.3 99.3-90.3 169.9 0 113.1 92 205.1 205.1 205.1C378.3 470.3 470.3 378.3 470.3 265.2z" fill="#bb5f0b" data-original="#000000" opacity="1" class=""/></g></svg>