<svg width="148" height="144" viewBox="0 0 148 144" fill="none" xmlns="http://www.w3.org/2000/svg">
<ellipse cx="74" cy="72" rx="74" ry="72" fill="#6932F5"/>
<path d="M96.375 68.3292V52.625C96.375 49.1781 93.572 46.375 90.1249 46.375H43.2499C39.803 46.375 37 49.178 37 52.625V83.875C37 87.3219 39.803 90.125 43.25 90.125H78.2913C80.3386 97.3281 86.9619 102.625 94.8125 102.625C97.8338 102.625 100.805 101.83 103.408 100.324C104.154 99.8922 104.41 98.937 103.977 98.1893C103.545 97.4416 102.588 97.1837 101.842 97.6202C99.7151 98.8501 97.2843 99.5 94.8124 99.5C87.0578 99.5 80.7499 93.192 80.7499 85.4375C80.7499 77.6831 87.058 71.375 94.8124 71.375C102.567 71.375 108.875 77.6831 108.875 85.4375V87.0001C108.875 88.7228 107.473 90.125 105.75 90.125C104.027 90.125 102.625 88.7228 102.625 87.0001V80.75C102.625 80.5448 102.585 80.3416 102.506 80.1519C102.428 79.9623 102.313 79.79 102.168 79.6449C102.023 79.4997 101.85 79.3846 101.661 79.3062C101.471 79.2277 101.268 79.1874 101.062 79.1875C100.642 79.1875 100.265 79.3576 99.984 79.627C98.603 78.3963 96.8033 77.625 94.8124 77.625C90.5049 77.625 87 81.1299 87 85.4374C87 89.7449 90.5049 93.25 94.8125 93.25C97.1411 93.25 99.2115 92.2054 100.644 90.5837C101.776 92.1917 103.638 93.25 105.75 93.25C109.197 93.25 112 90.447 112 87V85.4374C112 76.4876 105.122 69.1223 96.375 68.3292ZM43.25 49.5H90.125C90.1901 49.5 90.2446 49.5332 90.3087 49.5372L67.9724 67.8716C67.1774 68.3721 66.0253 68.2683 65.5081 67.951L43.0683 49.5369C43.1317 49.5331 43.1856 49.5 43.25 49.5ZM93.25 68.3292C84.5033 69.1223 77.625 76.4876 77.625 85.4375C77.625 85.9649 77.6573 86.4846 77.7041 87.0001H43.25C41.5274 87.0001 40.1251 85.5978 40.1251 83.8751V52.625C40.1251 52.1825 40.2228 51.7646 40.3895 51.3829L63.6634 70.4687C64.5728 71.0623 65.6181 71.3752 66.6877 71.3752C67.7162 71.3752 68.7216 71.0853 69.6067 70.536C69.6961 70.4881 69.7804 70.4314 69.8585 70.3667L92.9854 51.3826C93.1523 51.7646 93.2501 52.1825 93.2501 52.6252V68.3292H93.25ZM94.8125 90.125C92.2277 90.125 90.125 88.0224 90.125 85.4375C90.125 82.8527 92.2277 80.75 94.8125 80.75C97.3974 80.75 99.5 82.8527 99.5 85.4375C99.5 88.0224 97.3974 90.125 94.8125 90.125Z" fill="white"/>
</svg>
