<svg width="23" height="23" viewBox="0 0 23 23" fill="none" xmlns="http://www.w3.org/2000/svg">
<path d="M2.875 17.2499V19.1666C2.875 19.6749 3.07693 20.1624 3.43638 20.5219C3.79582 20.8813 4.28333 21.0833 4.79167 21.0833H18.2083C18.7167 21.0833 19.2042 20.8813 19.5636 20.5219C19.9231 20.1624 20.125 19.6749 20.125 19.1666V17.2499C20.125 15.9791 19.6202 14.7603 18.7216 13.8617C17.8229 12.9631 16.6042 12.4583 15.3333 12.4583H7.66667C6.39584 12.4583 5.17706 12.9631 4.27845 13.8617C3.37983 14.7603 2.875 15.9791 2.875 17.2499Z" fill="#6932F5"/>
<path d="M11.5 10.5417C13.8817 10.5417 15.8125 8.61098 15.8125 6.22925C15.8125 3.84752 13.8817 1.91675 11.5 1.91675C9.11827 1.91675 7.1875 3.84752 7.1875 6.22925C7.1875 8.61098 9.11827 10.5417 11.5 10.5417Z" fill="#6932F5"/>
</svg>
