<svg width="52" height="52" viewBox="0 0 52 52" fill="none" xmlns="http://www.w3.org/2000/svg">
<path d="M6.5 10.8333C6.5 8.44025 8.44025 6.5 10.8333 6.5H41.1667C43.5598 6.5 45.5 8.44025 45.5 10.8333V41.1667C45.5 43.5598 43.5598 45.5 41.1667 45.5H10.8333C8.44025 45.5 6.5 43.5598 6.5 41.1667V10.8333Z" fill="#6932F5"/>
<path d="M9.75 9.75V42.25H42.25V9.75H9.75ZM25.6653 33.5833L24.8398 30.4308H20.5974L19.773 33.5833H16.4829L21.2962 18.1794H24.1421L28.9878 33.5833H25.6653ZM33.4208 33.5833H30.4168V22.1368H33.4208V33.5833ZM33.098 20.3168C32.8044 20.6202 32.409 20.7718 31.9074 20.7718C31.4058 20.7718 31.0104 20.6202 30.7168 20.3168C30.4233 20.0135 30.2781 19.6322 30.2781 19.1739C30.2781 18.7081 30.4265 18.3278 30.7222 18.031C31.018 17.7342 31.4145 17.5868 31.9074 17.5868C32.4003 17.5868 32.7958 17.7352 33.0926 18.031C33.3894 18.3267 33.5368 18.7081 33.5368 19.1739C33.5368 19.6322 33.3905 20.0135 33.098 20.3168Z" fill="#D9CAFC"/>
<path d="M21.2756 27.8384H24.153L22.7143 22.3481L21.2756 27.8384Z" fill="#D9CAFC"/>
</svg>
