<svg width="20" height="20" viewBox="0 0 20 20" fill="none" xmlns="http://www.w3.org/2000/svg">
<g clip-path="url(#clip0_69_40)">
<path d="M7.29188 14.6767V18.5417C7.29251 18.6731 7.33446 18.8009 7.41179 18.9071C7.48911 19.0133 7.59788 19.0924 7.7227 19.1334C7.84752 19.1743 7.98204 19.1749 8.10723 19.1351C8.23242 19.0954 8.34192 19.0172 8.42021 18.9117L10.681 15.8351L7.29188 14.6767ZM19.7377 0.115895C19.6438 0.0490233 19.5332 0.00942685 19.4182 0.00148505C19.3032 -0.00645676 19.1883 0.0175656 19.086 0.0708953L0.336044 9.86256C0.228163 9.91958 0.139274 10.0069 0.0802863 10.1137C0.021299 10.2205 -0.00522052 10.3422 0.00398247 10.4639C0.0131855 10.5855 0.0577106 10.7019 0.132093 10.7986C0.206476 10.8953 0.307481 10.9683 0.422711 11.0084L5.63521 12.7901L16.736 3.2984L8.14604 13.6476L16.8819 16.6334C16.9686 16.6625 17.0606 16.6723 17.1514 16.6622C17.2423 16.652 17.3299 16.6221 17.408 16.5746C17.4861 16.527 17.5529 16.463 17.6036 16.3869C17.6544 16.3108 17.6879 16.2246 17.7019 16.1342L19.9935 0.717562C20.0106 0.603431 19.9957 0.486806 19.9506 0.380609C19.9054 0.274412 19.8317 0.18279 19.7377 0.115895Z" fill="#6932F5"/>
</g>
<defs>
<clipPath id="clip0_69_40">
<rect width="20" height="20" fill="white"/>
</clipPath>
</defs>
</svg>
