<svg width="48" height="48" viewBox="0 0 48 48" fill="none" xmlns="http://www.w3.org/2000/svg">
<path d="M24.0001 1.91998V15.36H17.2801C13.5793 15.36 10.5601 12.3408 10.5601 8.63998C10.5601 4.93918 13.5793 1.91998 17.2801 1.91998H24.0001ZM24.0001 17.28V30.72H17.2801C13.5793 30.72 10.5601 27.7008 10.5601 24C10.5601 20.2992 13.5793 17.28 17.2801 17.28H24.0001ZM24.0001 32.64V39.36C24.0001 43.0608 20.9809 46.08 17.2801 46.08C13.5793 46.08 10.5601 43.0608 10.5601 39.36C10.5601 35.6592 13.5793 32.64 17.2801 32.64H24.0001ZM39.3601 8.63998C39.3601 12.3408 36.3409 15.36 32.6401 15.36H25.9201V1.91998H32.6401C36.3409 1.91998 39.3601 4.93918 39.3601 8.63998ZM32.6401 17.28C30.8578 17.28 29.1485 17.988 27.8883 19.2482C26.6281 20.5085 25.9201 22.2177 25.9201 24C25.9201 25.7822 26.6281 27.4915 27.8883 28.7517C29.1485 30.012 30.8578 30.72 32.6401 30.72C34.4223 30.72 36.1316 30.012 37.3918 28.7517C38.6521 27.4915 39.3601 25.7822 39.3601 24C39.3601 22.2177 38.6521 20.5085 37.3918 19.2482C36.1316 17.988 34.4223 17.28 32.6401 17.28Z" fill="#D9CAFC"/>
</svg>
