<svg width="54" height="28" viewBox="0 0 54 28" fill="none" xmlns="http://www.w3.org/2000/svg">
<g clip-path="url(#clip0_70_270)">
<path d="M0 14C0 21.7319 12.0886 27.9999 26.9999 27.9999C41.9114 27.9999 54 21.7319 54 14C54 6.26806 41.9114 -8.45251e-06 26.9999 -8.45251e-06C12.0886 0.000121655 0 6.26819 0 14Z" fill="url(#paint0_radial_70_270)"/>
<path d="M26.9999 26.9605C41.3289 26.9605 52.9452 21.1578 52.9452 13.9999C52.9452 6.84223 41.3289 1.03943 26.9999 1.03943C12.6709 1.03943 1.05469 6.84223 1.05469 13.9999C1.05469 21.1579 12.671 26.9605 26.9999 26.9605Z" fill="#D9CAFC"/>
<path d="M14.6692 15.6069C15.8474 15.6069 16.727 15.3928 17.2835 14.9705C17.834 14.5526 18.2143 13.8287 18.4137 12.8188C18.5995 11.8749 18.5288 11.2158 18.2032 10.8602C17.8705 10.497 17.1513 10.3127 16.0652 10.3127H14.1822L13.1384 15.6071H14.6692V15.6069ZM8.51078 22.1284C8.46755 22.1285 8.42485 22.1191 8.38573 22.1009C8.34662 22.0828 8.31208 22.0563 8.28458 22.0235C8.25708 21.9906 8.23732 21.9521 8.22672 21.9108C8.21611 21.8695 8.21492 21.8264 8.22324 21.7846L10.9897 7.75461C11.0028 7.68882 11.0386 7.62953 11.091 7.5869C11.1435 7.54427 11.2094 7.52095 11.2774 7.52094H17.2396C19.1134 7.52094 20.5083 8.02253 21.3848 9.01176C22.2662 10.0062 22.5383 11.3964 22.1937 13.1434C22.0535 13.855 21.8123 14.516 21.4769 15.108C21.1411 15.7004 20.6972 16.2486 20.1575 16.7377C19.5112 17.3337 18.7801 17.7659 17.986 18.0203C17.2045 18.2712 16.2008 18.3985 15.0028 18.3985H12.5885L11.8989 21.8947C11.886 21.9605 11.8502 22.0198 11.7977 22.0624C11.7453 22.1051 11.6794 22.1284 11.6114 22.1284H8.51078Z" fill="#16181A"/>
<path d="M14.4243 10.6014H16.0656C17.3763 10.6014 17.8316 10.8849 17.9864 11.0538C18.243 11.3343 18.2914 11.9258 18.1265 12.7641C17.9412 13.7025 17.5976 14.3681 17.1052 14.7417C16.6012 15.1243 15.7816 15.3181 14.6695 15.3181H13.4944L14.4243 10.6014ZM17.2397 7.23224H11.2774C11.1414 7.23228 11.0097 7.27893 10.9048 7.36419C10.7998 7.44945 10.7283 7.56802 10.7023 7.69958L7.936 21.7297C7.91956 21.8133 7.92208 21.8994 7.94337 21.9819C7.96466 22.0645 8.0042 22.1413 8.05915 22.207C8.1141 22.2728 8.18311 22.3257 8.26124 22.362C8.33937 22.3984 8.42468 22.4172 8.51107 22.4173H11.6116C11.7476 22.4173 11.8794 22.3706 11.9843 22.2854C12.0893 22.2001 12.1609 22.0815 12.1869 21.9499L12.8302 18.6872H15.003C16.2317 18.6872 17.266 18.5551 18.0771 18.2948C18.9112 18.0277 19.6786 17.5749 20.3578 16.9487C20.9195 16.4394 21.3821 15.8675 21.7327 15.249C22.0833 14.6304 22.3354 13.9404 22.4815 13.1985C22.8443 11.3596 22.5496 9.88706 21.6056 8.82195C20.6709 7.76714 19.2018 7.23224 17.2397 7.23224ZM12.7835 15.8956H14.6695C15.9197 15.8956 16.8507 15.6635 17.4625 15.1993C18.0745 14.735 18.4871 13.9599 18.7016 12.874C18.9067 11.8314 18.8132 11.0956 18.4212 10.6669C18.0287 10.2382 17.2435 10.0238 16.0656 10.0238H13.9412L12.7835 15.8956ZM17.2397 7.80981C19.0334 7.80981 20.3419 8.27383 21.1643 9.20186C21.9867 10.1299 22.2344 11.4252 21.9063 13.0883C21.7712 13.7735 21.5428 14.3998 21.2212 14.9672C20.8994 15.5349 20.4787 16.0543 19.9593 16.5252C19.3401 17.0963 18.6525 17.5032 17.8956 17.7457C17.1388 17.9887 16.1748 18.1097 15.003 18.1097H12.3471L11.6116 21.8397H8.51107L11.2774 7.80992L17.2397 7.80981Z" fill="#D9CAFC"/>
<path d="M29.3029 18.3984C29.2597 18.3984 29.217 18.389 29.1779 18.3708C29.1388 18.3527 29.1043 18.3262 29.0768 18.2933C29.0493 18.2605 29.0295 18.222 29.0189 18.1807C29.0083 18.1394 29.007 18.0963 29.0153 18.0545L30.2391 11.8468C30.3555 11.2565 30.3268 10.8328 30.1583 10.6538C30.0552 10.5443 29.7454 10.3607 28.8295 10.3607H26.6126L25.074 18.1647C25.061 18.2305 25.0252 18.2898 24.9728 18.3324C24.9203 18.3751 24.8544 18.3984 24.7864 18.3984H21.7103C21.6671 18.3984 21.6244 18.389 21.5853 18.3708C21.5462 18.3527 21.5116 18.3262 21.4841 18.2933C21.4567 18.2605 21.4369 18.222 21.4262 18.1807C21.4156 18.1394 21.4144 18.0963 21.4226 18.0545L24.1889 4.02451C24.2019 3.95872 24.2377 3.89943 24.2902 3.8568C24.3427 3.81417 24.4086 3.79085 24.4766 3.79083H27.5527C27.5959 3.79078 27.6386 3.80016 27.6777 3.81832C27.7169 3.83647 27.7514 3.86294 27.7789 3.89582C27.8064 3.9287 27.8262 3.96718 27.8368 4.00849C27.8474 4.04979 27.8486 4.09291 27.8403 4.13473L27.1727 7.52086H29.5577C31.3746 7.52086 32.6067 7.83666 33.3242 8.48616C34.0557 9.14877 34.2838 10.2084 34.0027 11.6357L32.7155 18.1644C32.7025 18.2302 32.6667 18.2895 32.6142 18.3321C32.5618 18.3747 32.4959 18.3981 32.4279 18.3981H29.3029V18.3984Z" fill="#16181A"/>
<path d="M27.5527 3.5022H24.4766C24.3406 3.50222 24.2089 3.54885 24.1039 3.63412C23.999 3.71938 23.9274 3.83796 23.9014 3.96954L21.135 17.9996C21.1185 18.0832 21.121 18.1694 21.1423 18.252C21.1636 18.3345 21.2032 18.4114 21.2581 18.4772C21.3131 18.5429 21.3822 18.5958 21.4604 18.6321C21.5385 18.6684 21.6239 18.6872 21.7103 18.6872H24.7863C24.9223 18.6872 25.0541 18.6406 25.1591 18.5553C25.264 18.4701 25.3356 18.3515 25.3616 18.2199L26.8541 10.6496H28.8296C29.7438 10.6496 29.9358 10.8421 29.9434 10.8504C29.9988 10.9092 30.0719 11.1816 29.9515 11.7918L28.7277 17.9995C28.7112 18.0831 28.7137 18.1693 28.735 18.2519C28.7563 18.3344 28.7958 18.4113 28.8508 18.4771C28.9058 18.5428 28.9748 18.5957 29.053 18.632C29.1312 18.6683 29.2165 18.6871 29.303 18.6871H32.428C32.564 18.6871 32.6958 18.6405 32.8007 18.5552C32.9057 18.47 32.9773 18.3514 33.0032 18.2198L34.2901 11.691C34.5921 10.1584 34.3339 9.00877 33.5225 8.27361C32.7482 7.5728 31.4513 7.23212 29.5578 7.23212H27.5281L28.1279 4.18979C28.1444 4.1062 28.1419 4.02005 28.1206 3.93751C28.0994 3.85497 28.0599 3.77808 28.005 3.71235C27.9499 3.64666 27.8809 3.59377 27.8027 3.55744C27.7245 3.52112 27.6391 3.50225 27.5527 3.5022ZM27.5527 4.07977L26.8172 7.8098H29.5578C31.2821 7.80987 32.4715 8.10631 33.1259 8.69911C33.7805 9.29199 33.9766 10.2528 33.7151 11.5809L32.428 18.1096H29.303L30.5267 11.9021C30.666 11.1958 30.6148 10.7142 30.3731 10.4573C30.1311 10.2005 29.6167 10.0721 28.8297 10.072H26.3711L24.7865 18.1096H21.7104L24.4767 4.07977H27.5527Z" fill="#D9CAFC"/>
<path d="M38.8701 15.6069C40.0482 15.6069 40.9278 15.3928 41.4843 14.9705C42.0349 14.5528 42.4151 13.8289 42.6146 12.8189C42.8004 11.8749 42.7297 11.2158 42.4041 10.8603C42.0714 10.497 41.3522 10.3128 40.2662 10.3128H38.3834L37.3395 15.6071H38.8701V15.6069ZM32.7115 22.1284C32.6683 22.1284 32.6256 22.119 32.5865 22.1009C32.5474 22.0827 32.5129 22.0562 32.4854 22.0234C32.4579 21.9905 32.4381 21.952 32.4275 21.9107C32.4168 21.8694 32.4156 21.8263 32.4239 21.7845L35.1903 7.75455C35.2033 7.68874 35.2391 7.62944 35.2916 7.58681C35.3441 7.54418 35.41 7.52087 35.478 7.52087H41.4403C43.3142 7.52087 44.7088 8.02246 45.5855 9.0117C46.4668 10.006 46.7388 11.3961 46.3944 13.1432C46.2539 13.8549 46.0128 14.516 45.6774 15.1078C45.3416 15.7004 44.8977 16.2485 44.358 16.7376C43.7118 17.3336 42.9806 17.7659 42.1865 18.0201C41.405 18.2711 40.4013 18.3984 39.2033 18.3984H36.789L36.0999 21.8948C36.0869 21.9606 36.051 22.0199 35.9985 22.0625C35.946 22.1051 35.8801 22.1285 35.8121 22.1284H32.7115Z" fill="#16181A"/>
<path d="M38.6249 10.6014H40.2663C41.5769 10.6014 42.0322 10.8849 42.1869 11.0538C42.4437 11.3343 42.492 11.9258 42.3271 12.7639C42.1418 13.7025 41.7981 14.3681 41.3059 14.7417C40.8018 15.1243 39.9822 15.3181 38.8701 15.3181H37.695L38.6249 10.6014ZM41.4403 7.23224H35.4782C35.3422 7.23228 35.2105 7.27893 35.1055 7.36419C35.0006 7.44945 34.9291 7.56802 34.9031 7.69958L32.1367 21.7297C32.1202 21.8133 32.1228 21.8994 32.1441 21.9819C32.1653 22.0645 32.2049 22.1413 32.2598 22.207C32.3148 22.2728 32.3838 22.3257 32.4619 22.362C32.5401 22.3984 32.6254 22.4172 32.7118 22.4173H35.8124C35.9484 22.4172 36.0801 22.3706 36.185 22.2853C36.29 22.2001 36.3616 22.0815 36.3875 21.9499L37.0307 18.6872H39.2036C40.4323 18.6872 41.4666 18.5551 42.2777 18.2948C43.1118 18.0277 43.8794 17.5747 44.5585 16.9485C45.1203 16.4392 45.5828 15.8675 45.9334 15.249C46.2842 14.6304 46.5361 13.9404 46.6823 13.1985C47.0451 11.3595 46.7504 9.88685 45.8064 8.82184C44.8715 7.76714 43.4027 7.23234 41.4405 7.23234M36.9844 15.8956H38.8703C40.1204 15.8956 41.0514 15.6635 41.6633 15.1993C42.2754 14.735 42.6878 13.9599 42.9023 12.874C43.1076 11.8314 43.0141 11.0956 42.6219 10.6669C42.2295 10.2382 41.4443 10.0238 40.2664 10.0238H38.1419L36.9844 15.8956ZM41.4405 7.80981C43.2342 7.80981 44.5424 8.27383 45.3651 9.20186C46.5991 10.5939 46.435 11.4252 46.107 13.0883C45.9719 13.7735 45.7435 14.3998 45.4219 14.9672C45.1001 15.5349 44.6795 16.0543 44.16 16.5252C43.541 17.0963 42.8531 17.5031 42.0964 17.7457C41.3395 17.9887 40.3756 18.1097 39.2037 18.1097H36.5478L35.8125 21.8397H32.712L35.4783 7.80992L41.4405 7.80981Z" fill="#D9CAFC"/>
</g>
<defs>
<radialGradient id="paint0_radial_70_270" cx="0" cy="0" r="1" gradientUnits="userSpaceOnUse" gradientTransform="translate(16.2202 4.95365) scale(44.3276 43.6938)">
<stop stop-color="#AEB2D5"/>
<stop offset="0.3" stop-color="#AEB2D5"/>
<stop offset="0.75" stop-color="#484C89"/>
<stop offset="1" stop-color="#484C89"/>
</radialGradient>
<clipPath id="clip0_70_270">
<rect width="54" height="28" fill="white"/>
</clipPath>
</defs>
</svg>
