<svg width="23" height="23" viewBox="0 0 23 23" fill="none" xmlns="http://www.w3.org/2000/svg">
<path d="M18.0018 6.09716C17.4567 5.02276 16.6504 4.10261 15.6568 3.42127C14.6632 2.73993 13.5144 2.31926 12.3157 2.19794C11.7732 2.14366 11.2267 2.14366 10.6842 2.19794C9.48557 2.31926 8.33668 2.73993 7.34311 3.42127C6.34955 4.10261 5.54319 5.02276 4.99815 6.09716C4.31252 7.46803 4.04768 9.01108 4.23697 10.5321C4.42625 12.0532 5.06119 13.4842 6.0619 14.6453L10.9451 20.5821C11.0125 20.664 11.0972 20.73 11.1932 20.7753C11.2891 20.8205 11.3939 20.844 11.5 20.844C11.606 20.844 11.7108 20.8205 11.8067 20.7753C11.9027 20.73 11.9874 20.664 12.0548 20.5821L16.9373 14.6453C17.9381 13.4843 18.5732 12.0533 18.7626 10.5322C18.952 9.01119 18.6873 7.4681 18.0018 6.09716ZM11.5 12.2188C10.9313 12.2188 10.3755 12.0501 9.9027 11.7342C9.4299 11.4183 9.06141 10.9693 8.84381 10.444C8.6262 9.91863 8.56927 9.34056 8.6802 8.78287C8.79113 8.22517 9.06495 7.71289 9.46703 7.31082C9.8691 6.90874 10.3814 6.63492 10.9391 6.52399C11.4968 6.41306 12.0748 6.46999 12.6002 6.6876C13.1255 6.9052 13.5745 7.27369 13.8904 7.74649C14.2063 8.21928 14.375 8.77513 14.375 9.34375C14.374 10.106 14.0708 10.8367 13.5318 11.3756C12.9929 11.9146 12.2622 12.2178 11.5 12.2188Z" fill="#6932F5"/>
</svg>
