<svg width="50" height="50" viewBox="0 0 50 50" fill="none" xmlns="http://www.w3.org/2000/svg">
<path d="M24.0458 11.7469C22.3447 9.19582 21.977 5.78644 21.8968 4.3854C17.576 5.31978 13.2833 6.99582 13.5312 8.23019C13.5624 8.3854 13.7583 8.57186 14.0833 8.75311L13.5749 9.66248C12.9541 9.31457 12.6051 8.91352 12.5103 8.43436C12.2301 7.03748 13.8124 5.77394 17.3458 4.57082C19.7583 3.74894 22.1916 3.25832 22.2947 3.23853L22.9166 3.11353V3.74998C22.9166 3.79373 22.9437 8.21665 24.9124 11.1698L24.0458 11.7469Z" fill="#D9CAFC"/>
<path d="M25.7824 44.7917H25.5209C16.9876 44.7917 7.49074 42.1114 6.36886 37.626C5.68449 34.8864 7.92303 31.8594 12.8418 28.875L13.3834 29.7646C8.9574 32.451 6.82511 35.1521 7.38032 37.3739C8.35428 41.2677 17.3543 43.6948 25.248 43.7489C26.1866 42.3458 31.2293 34.1031 28.3512 23.0479L29.3584 22.7854C32.6387 35.3812 26.0064 44.4906 25.9397 44.5812L25.7824 44.7917Z" fill="#D9CAFC"/>
<path d="M10.3448 40.9438C9.78332 40.9438 9.5052 40.8823 9.45936 40.8709C9.27603 40.8261 9.13228 40.6854 9.08228 40.5042C9.03124 40.3229 9.08332 40.1281 9.21666 39.9959C9.29166 39.9209 16.7135 32.4875 17.7156 26.4771L18.7427 26.6479C17.8812 31.8188 12.7896 37.7136 10.7677 39.8844C12.7875 39.7688 17.8875 38.8229 27.6781 33.3427C20.0375 32.5052 18.8292 26.3886 18.8167 26.3229L19.8406 26.1344C19.8896 26.3906 21.1177 32.3959 29.4698 32.3959C29.4729 32.3959 29.475 32.3959 29.4781 32.3959C29.7146 32.3959 29.9198 32.5542 29.9802 32.7813C30.0427 33.0084 29.9427 33.249 29.7396 33.3677C18.0364 40.1479 12.3614 40.9427 10.3448 40.9438Z" fill="#D9CAFC"/>
<path d="M15.1291 43.4375C14.9134 43.4375 14.7176 43.3042 14.6416 43.099C14.5593 42.8792 14.6343 42.6302 14.8259 42.4927C14.8613 42.4667 16.7145 41.099 18.6863 38.0886C17.928 37.7531 17.1603 37.3615 16.3988 36.9042C15.4738 36.349 14.7749 35.7531 14.253 35.1427C11.5759 35.849 9.10509 36.1281 6.9353 35.9438L7.0228 34.9063C8.97697 35.0719 11.1988 34.8406 13.6072 34.2396C11.9686 31.4396 13.4728 28.6604 13.4936 28.6229L14.4041 29.1302C14.3343 29.2573 13.0863 31.599 14.6634 33.9563C16.9561 33.2979 19.402 32.324 21.9332 31.0583C22.5155 29.1469 22.9707 26.9729 23.2093 24.5208C23.2259 24.3531 23.3218 24.2042 23.4676 24.1198C23.6134 24.0354 23.7916 24.0281 23.9447 24.0979C23.978 24.1136 27.3447 25.6511 29.7822 26.6542C29.9593 26.7271 30.0822 26.8917 30.102 27.0823C30.1228 27.2729 30.0363 27.4583 29.877 27.5667C27.4926 29.1917 25.1238 30.6011 22.8166 31.7771C22.0853 34.0948 21.1801 36.024 20.2551 37.6011C24.1113 39.0417 27.4582 39.0636 27.5009 39.0636C27.7384 39.0636 27.9457 39.224 28.0051 39.4542C28.0645 39.6844 27.9613 39.925 27.7541 40.0406C23.0249 42.6677 15.4968 43.4073 15.1791 43.4375C15.1624 43.4365 15.1457 43.4375 15.1291 43.4375ZM19.6968 38.5073C18.6134 40.1886 17.5488 41.3958 16.753 42.1844C18.8343 41.8781 22.4832 41.2073 25.5113 39.9563C24.0613 39.7781 21.9624 39.3823 19.6968 38.5073ZM15.3822 34.824C15.7916 35.2323 16.302 35.6313 16.9343 36.0115C17.7009 36.4719 18.4791 36.8625 19.2468 37.1938C20.0322 35.8771 20.8103 34.2969 21.478 32.4354C19.3728 33.4375 17.3291 34.2375 15.3822 34.824ZM24.1686 25.3427C23.9551 27.1844 23.6259 28.8646 23.2176 30.3948C24.9468 29.4729 26.7113 28.4198 28.4905 27.2427C26.877 26.5594 25.103 25.7646 24.1686 25.3427Z" fill="#D9CAFC"/>
<path d="M18.6709 11.0417C18.549 11.0417 18.4282 10.9979 18.3324 10.9167C16.6553 9.48126 14.6813 6.56042 14.598 6.43647C14.4636 6.23751 14.4845 5.97188 14.6459 5.7948C14.8063 5.61668 15.0709 5.57501 15.2792 5.68855C15.2907 5.69167 16.2563 6.08959 22.797 7.17918C22.9855 7.21043 23.1407 7.34167 23.2032 7.52084C23.2667 7.70001 23.2261 7.90001 23.099 8.04167C21.2678 10.076 18.9542 10.9719 18.8563 11.0083C18.7959 11.0302 18.7324 11.0417 18.6709 11.0417ZM16.299 7.02709C16.9563 7.91147 17.9032 9.10626 18.7699 9.91147C19.3022 9.66876 20.4959 9.05938 21.6282 8.03855C18.9376 7.57917 17.2959 7.25209 16.299 7.02709Z" fill="#D9CAFC"/>
<path d="M22.753 25.4167C22.6822 25.4167 22.6103 25.4021 22.5437 25.3729C22.3364 25.2813 22.2114 25.0667 22.2353 24.8417C22.5395 21.9782 18.1458 20.8292 18.101 20.8188C17.9197 20.7729 17.776 20.6323 17.727 20.4521C17.678 20.2719 17.7291 20.0782 17.8614 19.9459C18.077 19.7302 23.2145 14.6354 29.6603 11.8375C29.8405 11.7594 30.0447 11.7886 30.1968 11.9104C30.3478 12.0334 30.4176 12.2302 30.378 12.4198C29.1426 18.4032 23.3885 24.9657 23.1447 25.2417C23.0416 25.3552 22.8978 25.4167 22.753 25.4167ZM19.2239 20.0886C20.4572 20.5521 22.6176 21.625 23.1645 23.5844C24.6739 21.7011 27.8958 17.3625 29.0989 13.2365C24.5291 15.4344 20.6812 18.749 19.2239 20.0886Z" fill="#6932F5"/>
<path d="M13.6239 29.5417L13.1292 28.625C15.0906 27.5677 17.3375 25.6219 19.1781 23.3604C17.6114 24.4333 16.7146 25.1677 16.6864 25.1917L16.0208 24.3896C16.0614 24.3562 17.8583 22.8823 20.8448 21.0354C21.6646 19.7167 22.2948 18.3604 22.6187 17.0604C22.6739 16.8396 22.7219 16.626 22.7604 16.4198C20.7552 15.7042 18.9052 15.2802 17.6344 15.0979C17.4417 15.0708 17.2812 14.9385 17.2167 14.7562C17.1521 14.5739 17.1948 14.3698 17.325 14.2281C17.4135 14.1323 19.5291 11.8656 22.1729 10.6208C22.3781 10.5239 22.6239 10.5719 22.7781 10.7396C22.8479 10.8156 24.2781 12.4219 23.9146 15.7448C25.1177 16.2135 26.3573 16.7833 27.551 17.4614C30.425 16.1698 33.6885 15.0073 37.1646 14.3052C37.3437 14.2698 37.5427 14.3344 37.6656 14.4802C37.7875 14.626 37.8208 14.8271 37.7521 15.0042C36.3979 18.475 32.7667 22.1823 32.6125 22.3385C32.5073 22.4448 32.3635 22.4979 32.2135 22.4927C32.0646 22.4844 31.9271 22.4135 31.8333 22.2969C30.6666 20.8302 29.1416 19.6156 27.4969 18.6271C25.2312 19.6729 23.225 20.7917 21.576 21.8031C19.4719 25.0875 16.2958 28.1031 13.6239 29.5417ZM28.6375 18.1208C29.9812 18.9875 31.2323 20.0062 32.2666 21.1917C33.1291 20.2562 35.1989 17.8917 36.3729 15.5437C33.6125 16.1792 31 17.0989 28.6375 18.1208ZM23.7489 16.7937C23.7146 16.9635 23.675 17.1375 23.6312 17.3146C23.4125 18.1885 23.0646 19.0864 22.6187 19.9823C23.7604 19.3302 25.0239 18.6573 26.3875 18.0052C25.5146 17.5427 24.6239 17.1406 23.7489 16.7937ZM18.8 14.2417C19.9573 14.4687 21.3833 14.8396 22.9052 15.3729C23.0635 13.4531 22.5448 12.2771 22.2312 11.7562C20.7979 12.5042 19.5427 13.5562 18.8 14.2417Z" fill="#6932F5"/>
<path d="M18.8021 19.2709C18.8021 23.8334 15 27.4584 12.2604 30.1042C11.8021 30.5521 10.25 30.625 10.25 30.625C10.6354 30.2292 11.0729 29.8125 11.5417 29.3646C14.1458 26.8438 17.7604 23.3959 17.7604 19.2709C17.7604 14.3854 15.7917 12.4584 14.2396 10.9167C13.5521 10.2188 12.9687 9.5521 12.6146 8.7396L12.9375 8.60419C13.2917 8.76044 13.6979 8.93752 14.0104 9.07294C14.2604 9.43752 14.5937 9.79169 14.9792 10.1771C16.5729 11.7709 18.8021 13.9584 18.8021 19.2709Z" fill="#6932F5"/>
<path d="M44.724 20.6188C44.724 20.6188 44.0938 20.7084 43.9167 20.7292C34.7917 21.7396 25.375 24.3646 19.9896 26.5209C18.0417 27.3021 16.0208 28.25 14.1771 29.3125C14.1667 29.3229 14.1563 29.3229 14.1354 29.3334C13.0521 29.9584 10.4167 31.25 8.28125 32.3854C11.4063 29.0625 17.2604 26.5 19.5938 25.5625C24.875 23.4479 33.9479 20.8959 42.875 19.8021C41.8229 18.5729 39.25 15.9688 34.1875 14.0313C31.2292 12.8854 26.7292 12.2396 22.7604 11.6667C16.4479 10.7604 12.8542 10.1563 12.5104 8.43752C12.4375 8.09377 12.4896 7.75002 12.6458 7.41669C12.9896 7.97919 13.4792 8.37502 13.8021 8.60419C13.9583 8.70835 14.0729 8.77085 14.1146 8.79169L14.125 8.8021C15.6042 9.58335 19.5938 10.1563 22.9167 10.6354C26.9375 11.2188 31.4896 11.875 34.5625 13.0521C41.7188 15.8125 44.1875 19.7604 44.2917 19.9271C44.3854 20.0834 44.724 20.6188 44.724 20.6188Z" fill="#6932F5"/>
</svg>
