<svg xmlns="http://www.w3.org/2000/svg" version="1.1" xmlns:xlink="http://www.w3.org/1999/xlink" width="512" height="512" x="0" y="0" viewBox="0 0 64 64" style="enable-background:new 0 0 512 512" xml:space="preserve" class=""><g><path d="M33 14.22V3.42c0-.56-.45-1-1-1s-1 .44-1 1v10.8c-9.35.52-16.81 8.29-16.81 17.78S21.65 49.26 31 49.78v10.8c0 .56.45 1 1 1s1-.44 1-1v-10.8c9.35-.52 16.81-8.29 16.81-17.78S42.35 14.74 33 14.22zm-2 33.56c-8.26-.52-14.81-7.4-14.81-15.78S22.74 16.74 31 16.22zM10.969 33H3.418a1 1 0 1 1 0-2h7.551a1 1 0 1 1 0 2zM17.504 17.759a.998.998 0 0 1-.725-.311l-5.203-5.47a1.001 1.001 0 0 1 1.449-1.379l5.203 5.47a1.001 1.001 0 0 1-.724 1.69z" fill="#6932f5" opacity="1" data-original="#000000"/><path d="M24.188 13.47a1 1 0 0 1-.929-.629l-2.805-7.009a1 1 0 1 1 1.857-.742l2.805 7.009a1 1 0 0 1-.928 1.371zM21.382 59.539a1 1 0 0 1-.928-1.371l2.805-7.01a1 1 0 1 1 1.857.742l-2.805 7.01a.999.999 0 0 1-.929.629zM12.301 53.711a1 1 0 0 1-.724-1.689l5.203-5.47a1 1 0 1 1 1.449 1.379l-5.203 5.47c-.197.205-.461.31-.725.31zM5.952 44.766a1 1 0 0 1-.412-1.911l6.88-3.106a.999.999 0 1 1 .823 1.822l-6.88 3.106c-.134.06-.274.089-.411.089zM12.831 24.341a.986.986 0 0 1-.411-.089l-6.88-3.106a1 1 0 1 1 .823-1.822l6.88 3.106a1 1 0 0 1-.412 1.911z" fill="#6932f5" opacity="1" data-original="#000000"/></g></svg>