<svg width="50" height="50" viewBox="0 0 50 50" fill="none" xmlns="http://www.w3.org/2000/svg">
<path fill-rule="evenodd" clip-rule="evenodd" d="M25 3.02734L46.9727 25L25 46.9727L3.02734 25L25 3.02734Z" fill="#D9CAFC"/>
<path fill-rule="evenodd" clip-rule="evenodd" d="M17.334 10.6934L18.7891 9.23828L23.7793 14.2285C24.1504 14.0527 24.5703 13.9453 25.0098 13.9453C26.5625 13.9453 27.8223 15.2051 27.8223 16.7578C27.8223 17.1973 27.7246 17.6172 27.5391 17.9883L32.0215 22.4707C32.3633 22.3242 32.7441 22.2363 33.1445 22.2363C34.6973 22.2363 35.957 23.4961 35.957 25.0488C35.957 26.6016 34.6973 27.8613 33.1445 27.8613C31.5918 27.8613 30.332 26.6016 30.332 25.0488C30.332 24.6484 30.4199 24.2676 30.5664 23.916L26.0254 19.375V32.6758C27.0703 33.0859 27.8125 34.1016 27.8125 35.293C27.8125 36.8457 26.5527 38.1055 25 38.1055C23.4473 38.1055 22.1875 36.8457 22.1875 35.293C22.1875 34.1016 22.9297 33.0859 23.9746 32.6758V19.3848C22.9297 18.9746 22.1875 17.959 22.1875 16.7676C22.1875 16.4062 22.2559 16.0645 22.3828 15.7422L17.334 10.6934Z" fill="#16181A"/>
<path d="M19.6094 9.24805L23.916 13.5547C26.5723 12.6563 29.1211 15.2051 28.2227 17.8613L32.1777 21.8066C34.3555 21.1523 36.5527 22.7832 36.5527 25.0586C36.5527 26.9336 35.0293 28.457 33.1543 28.457C30.8789 28.457 29.2481 26.2598 29.9023 24.082L26.6113 20.8008V32.3145C28.6035 33.3887 29.0234 36.0938 27.4023 37.7051C26.0742 39.0332 23.9258 39.0332 22.5977 37.7051C20.9766 36.0938 21.3965 33.3887 23.3887 32.3145V19.7559C22.0117 19.0137 21.3184 17.4316 21.7188 15.9082L17.334 11.5234L3.85742 25L25 46.1426L46.1426 25L25 3.85742L19.6094 9.24805ZM18.1641 10.6934L22.8027 15.332C22.959 15.4883 23.0176 15.7324 22.9297 15.957C22.666 16.6406 22.7539 17.4219 23.1641 18.0176C23.4082 18.3789 23.75 18.6621 24.1602 18.8281C24.3945 18.9063 24.5605 19.1211 24.5605 19.3848V32.6953C24.5605 32.9297 24.4238 33.1445 24.1895 33.2422C22.7051 33.8281 22.2949 35.752 23.4277 36.8945C24.8242 38.291 27.2266 37.2949 27.2266 35.3223C27.2266 34.8535 27.0898 34.4238 26.8457 34.0723C26.6016 33.7109 26.2598 33.4277 25.8496 33.2617C25.6152 33.1836 25.4492 32.9688 25.4492 32.7051V19.3848C25.4492 18.8672 26.0742 18.6035 26.4453 18.9648L30.9863 23.5059C31.1523 23.6719 31.2109 23.9258 31.1133 24.1504C30.4785 25.6055 31.5332 27.2656 33.1543 27.2656C35.1367 27.2656 36.1231 24.8633 34.7266 23.4668C34.209 22.9492 33.4375 22.7051 32.6953 22.8613C32.5586 22.8906 32.4219 22.9297 32.2949 22.9883C32.0703 23.1055 31.7969 23.0664 31.6113 22.8809L27.1289 18.3984C26.9531 18.2227 26.9043 17.959 27.0117 17.7246C27.8223 16.0547 26.3379 14.1602 24.502 14.5801C24.3457 14.6191 24.1992 14.668 24.0625 14.7363C23.8379 14.8633 23.5547 14.834 23.3594 14.6387L18.7793 10.0586L18.1641 10.6934ZM25.4199 2.61719L47.3926 24.5898C47.627 24.8242 47.627 25.1953 47.3926 25.4199L25.4199 47.3926C25.1855 47.627 24.8145 47.627 24.5898 47.3926L2.61719 25.4199C2.38281 25.1953 2.38281 24.8242 2.61719 24.5898L24.5898 2.61719C24.8145 2.38281 25.1855 2.38281 25.4199 2.61719Z" fill="#16181A"/>
</svg>
