<svg width="48" height="48" viewBox="0 0 48 48" fill="none" xmlns="http://www.w3.org/2000/svg">
<path d="M24 9.604C17.6 9.604 13.6 12.803 12 19.201C14.4 16.002 17.2 14.803 20.4 15.602C22.226 16.058 23.531 17.383 24.976 18.849C27.328 21.236 30.051 24 36 24C42.4 24 46.4 20.801 48 14.402C45.6 17.601 42.8 18.801 39.6 18.002C37.775 17.546 36.47 16.221 35.025 14.755C32.672 12.367 29.948 9.604 24 9.604ZM12 24C5.6 24 1.6 27.199 0 33.598C2.4 30.399 5.2 29.199 8.4 29.999C10.225 30.456 11.53 31.78 12.975 33.245C15.328 35.633 18.052 38.397 24 38.397C30.4 38.397 34.4 35.198 36 28.799C33.6 31.998 30.8 33.198 27.6 32.398C25.774 31.942 24.469 30.617 23.024 29.152C20.672 26.764 17.949 24 12 24Z" fill="#D9CAFC"/>
</svg>
