<svg width="48" height="45" viewBox="0 0 48 45" fill="none" xmlns="http://www.w3.org/2000/svg">
<g clip-path="url(#clip0_70_247)">
<path d="M24 17.3077C21.1698 17.3077 18.8572 19.6426 18.8572 22.5C18.8572 25.3574 21.1698 27.6923 24 27.6923C26.8302 27.6923 29.1429 25.3574 29.1429 22.5C29.1429 19.6426 26.8302 17.3077 24 17.3077Z" fill="#D9CAFC"/>
<path d="M0 22.5C0 24.1002 0.795687 25.5795 2.07978 26.8302C3.36388 28.0777 5.14609 29.1423 7.31321 30.0305C11.641 31.8135 17.5148 32.8846 24 32.8846C30.4852 32.8846 36.3558 31.8135 40.69 30.0305C42.8507 29.1423 44.6361 28.0777 45.9202 26.8302C47.2011 25.5795 48 24.1002 48 22.5C48 20.8999 47.2011 19.4173 45.9202 18.1698C44.6361 16.9224 42.8507 15.8578 40.6868 14.9696C36.359 13.1865 30.4852 12.1154 23.9968 12.1154C17.5084 12.1154 11.641 13.1865 7.31321 14.9663C5.14609 15.8578 3.36388 16.9224 2.07978 18.1698C0.795687 19.4173 0 20.8999 0 22.5ZM1.71429 22.5C1.71429 21.4746 2.2124 20.4492 3.27332 19.4173C4.33423 18.3854 5.93531 17.4057 7.96011 16.573C12.0065 14.9075 17.7024 13.8495 24 13.8495C30.2976 13.8495 35.9935 14.9075 40.0399 16.573C42.0615 17.4057 43.669 18.3886 44.7267 19.4173C45.7844 20.4492 46.2825 21.4746 46.2825 22.5C46.2825 23.5254 45.7844 24.5508 44.7267 25.5795C43.669 26.6082 42.0615 27.5944 40.0367 28.4271C35.9935 30.0926 30.2943 31.1506 24 31.1506C17.7057 31.1506 12.0065 30.0926 7.95687 28.4271C5.93531 27.5944 4.331 26.6082 3.27332 25.5795C2.2124 24.5508 1.71429 23.5254 1.71429 22.5Z" fill="#D9CAFC"/>
<path d="M36.5109 44.3567C37.8921 43.5534 38.7427 42.0806 39.1373 40.291C39.532 38.5015 39.5125 36.3527 39.147 33.9427C38.4096 29.1161 36.2651 23.2348 32.8818 17.3273C29.4985 11.4198 25.5233 6.60633 21.7487 3.54973C19.863 2.02143 18.0258 0.930716 16.2921 0.382095C14.5584 -0.166526 12.87 -0.159995 11.4888 0.643343C10.1077 1.44668 9.25702 2.91947 8.86241 4.70575C8.4678 6.4953 8.48721 8.64733 8.85271 11.0573C9.59018 15.8839 11.7379 21.7653 15.1179 27.6727C18.498 33.5802 22.4764 38.3937 26.2511 41.4503C28.1368 42.9753 29.974 44.0693 31.7077 44.6179C33.4414 45.1666 35.1298 45.16 36.5109 44.3567ZM35.6506 42.8545C34.7869 43.3607 33.6549 43.4195 32.222 42.9656C30.7826 42.5084 29.0975 41.5352 27.3249 40.0984C23.7799 37.2312 19.8953 32.5548 16.6058 26.8074C13.3131 21.0566 11.2398 15.3255 10.5508 10.7961C10.2047 8.52977 10.208 6.57041 10.5379 5.08783C10.8678 3.60524 11.4824 2.64842 12.3492 2.14552C13.2128 1.64262 14.3417 1.58057 15.7778 2.03449C17.2139 2.49167 18.9023 3.46482 20.6748 4.89842C24.2166 7.76889 28.1012 12.442 31.394 18.196C34.6834 23.9434 36.7568 29.6746 37.4489 34.2039C37.795 36.4703 37.7886 38.4329 37.4586 39.9122C37.1287 41.3915 36.5174 42.3516 35.6506 42.8545Z" fill="#D9CAFC"/>
<path d="M11.4891 44.3567C10.1079 43.5534 9.25725 42.0806 8.86264 40.291C8.4648 38.5047 8.48421 36.356 8.85294 33.9427C9.59041 29.1194 11.7349 23.2315 15.1182 17.3273C18.4982 11.4198 22.4767 6.60306 26.2513 3.54646C28.137 2.02142 29.971 0.930711 31.7079 0.378824C33.4416 -0.166531 35.13 -0.16 36.5112 0.643339C37.8923 1.44668 38.743 2.91946 39.1376 4.70575C39.5322 6.4953 39.5128 8.64406 39.144 11.0573C38.4098 15.8806 36.2653 21.7653 32.882 27.6695C29.4988 33.5802 25.5203 38.397 21.7457 41.4503C19.8599 42.9786 18.026 44.0693 16.2923 44.6179C14.5586 45.1666 12.8702 45.16 11.4891 44.3567ZM12.3494 42.8545C13.213 43.3607 14.3419 43.4195 15.778 42.9655C17.2141 42.5116 18.9025 41.5352 20.675 40.0983C24.2168 37.2311 28.1047 32.5548 31.3942 26.8073C34.6869 21.0566 36.757 15.3255 37.4492 10.7961C37.7953 8.52977 37.792 6.56714 37.4621 5.08456C37.1354 3.60524 36.5176 2.64842 35.6508 2.14552C34.7872 1.63935 33.6583 1.58057 32.2222 2.03448C30.7861 2.4884 29.0977 3.46482 27.3252 4.89842C23.7802 7.76888 19.8988 12.442 16.606 18.1927C13.3133 23.9434 11.24 29.6745 10.5511 34.2039C10.205 36.4703 10.2082 38.4329 10.5381 39.9155C10.8648 41.3948 11.4826 42.3516 12.3494 42.8545Z" fill="#D9CAFC"/>
</g>
<defs>
<clipPath id="clip0_70_247">
<rect width="48" height="45" fill="white"/>
</clipPath>
</defs>
</svg>
