<svg width="48" height="48" viewBox="0 0 48 48" fill="none" xmlns="http://www.w3.org/2000/svg">
<path d="M43.2001 3.84003H4.80009C4.26921 3.84003 3.84009 4.27011 3.84009 4.80003V43.2C3.84009 43.7299 4.26921 44.16 4.80009 44.16H43.2001C43.731 44.16 44.1601 43.7299 44.1601 43.2V4.80003C44.1601 4.27011 43.731 3.84003 43.2001 3.84003ZM27.8401 25.3872H23.0401V40.32H19.2001V25.3872H14.4001V22.08H27.8401V25.3872ZM28.9162 39.4675V35.4759C28.9162 35.4759 31.0964 37.1194 33.7124 37.1194C36.3284 37.1194 36.2276 35.4087 36.2276 35.1744C36.2276 32.6919 28.8154 32.6919 28.8154 27.192C28.8154 19.7127 39.6154 22.6637 39.6154 22.6637L39.481 26.2195C39.481 26.2195 37.6695 25.0119 35.6238 25.0119C33.578 25.0119 32.8398 25.9843 32.8398 27.024C32.8398 29.7072 40.3191 29.4394 40.3191 34.8394C40.3201 43.1568 28.9162 39.4675 28.9162 39.4675Z" fill="#D9CAFC"/>
</svg>
