<svg width="48" height="48" viewBox="0 0 48 48" fill="none" xmlns="http://www.w3.org/2000/svg">
<path d="M7.37299 11.443C7.29299 9.132 9.09399 7 11.529 7H36.475C38.91 7 40.711 9.132 40.63 11.443C40.553 13.664 40.653 16.54 41.377 18.886C42.103 21.239 43.328 22.726 45.334 22.917V25.084C43.328 25.275 42.104 26.762 41.377 29.115C40.653 31.46 40.553 34.337 40.63 36.558C40.71 38.868 38.909 41 36.475 41H11.529C9.09499 41 7.29299 38.868 7.37399 36.557C7.45099 34.336 7.35099 31.46 6.62699 29.114C5.90099 26.761 4.67299 25.274 2.66699 25.083V22.916C4.67299 22.725 5.89999 21.238 6.62699 18.885C7.34999 16.54 7.45099 13.664 7.37299 11.443Z" fill="#D9CAFC"/>
<path d="M27.073 23.464V23.436C28.926 23.116 30.372 21.379 30.372 19.466C30.372 18.114 29.852 16.968 28.868 16.154C27.887 15.342 26.5109 14.913 24.8869 14.913H17.45V33.08H24.9249C26.8669 33.08 28.4799 32.606 29.5879 31.708C30.6969 30.809 31.284 29.501 31.284 27.925C31.283 25.544 29.593 23.756 27.073 23.464ZM23.59 22.608H20.409V17.29H24.193C26.269 17.29 27.412 18.201 27.412 19.855C27.413 21.63 26.055 22.608 23.59 22.608ZM20.409 24.834H24.1679C26.8839 24.834 28.26 25.815 28.26 27.75C28.26 29.682 26.9029 30.703 24.3349 30.703H20.409V24.834Z" fill="#16181A"/>
</svg>
