<svg width="50" height="50" viewBox="0 0 50 50" fill="none" xmlns="http://www.w3.org/2000/svg">
<path d="M24.5 2C15.8008 2 14 6.49219 14 9.09375V14H24V15H9.09375C5.79297 15 2 17.6016 2 25C2 32.3984 5.79297 35 9.09375 35H15V29C15 26.8008 16.8008 25 19 25H31C32.6992 25 34 23.6992 34 22V9.09375C34 5.59375 30.6992 2 24.5 2ZM20 7C21.1016 7 22 7.89844 22 9C22 10.1016 21.1016 11 20 11C18.8984 11 18 10.1016 18 9C18 7.89844 18.8984 7 20 7ZM35 15V22C35 24.1992 33.1992 26 31 26H19C17.3008 26 16 27.3008 16 29V40.9062C16 44.4062 19.3008 48 25.5 48C34.1992 48 36 43.5078 36 40.9062V36H26V35H40.9062C44.207 35 48 32.3984 48 25C48 17.6016 44.207 15 40.9062 15H35ZM30 39C31.1016 39 32 39.8984 32 41C32 42.1016 31.1016 43 30 43C28.8984 43 28 42.1016 28 41C28 39.8984 28.8984 39 30 39Z" fill="#D9CAFC"/>
</svg>
