<svg width="52" height="52" viewBox="0 0 52 52" fill="none" xmlns="http://www.w3.org/2000/svg">
<path d="M46.9581 9.81718L26.3748 2.23384C26.1328 2.14463 25.867 2.14463 25.6251 2.23384L5.04177 9.81718C4.81361 9.90113 4.62031 10.0594 4.49298 10.2665C4.36565 10.4736 4.31169 10.7175 4.33977 10.959L7.58977 39.1257C7.60965 39.2956 7.66948 39.4584 7.76439 39.6008C7.85929 39.7431 7.98656 39.861 8.13577 39.9447L25.4691 49.6947C25.6312 49.7858 25.814 49.8337 25.9999 49.8337C26.1859 49.8337 26.3687 49.7858 26.5308 49.6947L43.8641 39.9447C44.0133 39.861 44.1406 39.7431 44.2355 39.6008C44.3304 39.4584 44.3902 39.2956 44.4101 39.1257L47.6601 10.959C47.6882 10.7175 47.6342 10.4736 47.5069 10.2665C47.3796 10.0594 47.1863 9.90113 46.9581 9.81718Z" fill="#16181A"/>
<path d="M42.3216 38.3262L26.0001 47.5085L9.67856 38.3262L6.59106 11.5548L26.0001 4.40485L45.4091 11.5548L42.3216 38.3262Z" fill="#E4E3FE"/>
<path d="M25.6208 4.54568V47.2962L26 47.5085L42.3215 38.3262L45.409 11.5548L26 4.40485L25.6208 4.54568Z" fill="#E4E3FE"/>
<path d="M25.0034 9.32967L13.0867 37.4963C13.0221 37.6287 12.9851 37.7729 12.978 37.92C12.971 38.0671 12.994 38.2142 13.0457 38.3521C13.0974 38.49 13.1767 38.616 13.2788 38.7222C13.3808 38.8285 13.5034 38.9128 13.6392 38.97C13.7749 39.0273 13.9209 39.0562 14.0682 39.0552C14.2155 39.0541 14.361 39.0229 14.4959 38.9637C14.6308 38.9044 14.7521 38.8183 14.8526 38.7106C14.953 38.6028 15.0304 38.4757 15.0801 38.337L18.4666 30.3333H33.5336L36.9201 38.337C37.0027 38.5332 37.1413 38.7007 37.3185 38.8187C37.4958 38.9366 37.7039 38.9997 37.9167 39C38.062 38.9997 38.2056 38.9703 38.3392 38.9133C38.6029 38.8011 38.8113 38.589 38.9189 38.3234C39.0266 38.0578 39.0246 37.7604 38.9134 37.4963L26.9967 9.32967C26.9011 9.14821 26.7577 8.99631 26.5821 8.89035C26.4064 8.78439 26.2052 8.72839 26.0001 8.72839C25.795 8.72839 25.5937 8.78439 25.4181 8.89035C25.2424 8.99631 25.0991 9.14821 25.0034 9.32967ZM32.6149 28.1667H19.3852L26.0001 12.5298L32.6149 28.1667Z" fill="#16181A"/>
<path d="M46.9581 9.81718L26.3748 2.23384C26.1328 2.14463 25.867 2.14463 25.6251 2.23384L5.04177 9.81718C4.81361 9.90113 4.62031 10.0594 4.49298 10.2665C4.36565 10.4736 4.31169 10.7175 4.33977 10.959L7.58977 39.1257C7.60965 39.2956 7.66948 39.4584 7.76439 39.6008C7.85929 39.7431 7.98656 39.861 8.13577 39.9447L25.4691 49.6947C25.6312 49.7858 25.814 49.8337 25.9999 49.8337C26.1859 49.8337 26.3687 49.7858 26.5308 49.6947L43.8641 39.9447C44.0133 39.861 44.1406 39.7431 44.2355 39.6008C44.3304 39.4584 44.3902 39.2956 44.4101 39.1257L47.6601 10.959C47.6882 10.7175 47.6342 10.4736 47.5069 10.2665C47.3796 10.0594 47.1863 9.90113 46.9581 9.81718Z" fill="url(#paint0_linear_70_254)"/>
<defs>
<linearGradient id="paint0_linear_70_254" x1="2.68877" y1="14.1223" x2="46.5854" y2="34.5908" gradientUnits="userSpaceOnUse">
<stop stop-color="#16181A" stop-opacity="0.2"/>
<stop offset="0.89207" stop-color="#16181A" stop-opacity="0.2"/>
</linearGradient>
</defs>
</svg>
