<svg width="40" height="40" viewBox="0 0 40 40" fill="none" xmlns="http://www.w3.org/2000/svg">
<g clip-path="url(#clip0_70_237)">
<path d="M2.51869 1.32416L5.11477 34.5363C5.13381 34.7802 5.2252 35.0127 5.37725 35.2043C5.5293 35.3959 5.73507 35.5377 5.96822 35.6115L19.6288 39.9426C19.8704 40.0192 20.1298 40.0192 20.3714 39.9426L34.032 35.6115C34.2651 35.5377 34.4709 35.3959 34.623 35.2043C34.775 35.0127 34.8664 34.7802 34.8854 34.5363L37.4815 1.32416C37.5373 0.610116 36.973 0 36.2569 0H3.74344C3.02728 0 2.46295 0.610116 2.51869 1.32416ZM30.824 11.6288H13.9049L14.4155 16.3373H30.4561L29.4067 29.7607L20.0001 32.743L10.5936 29.7607L10.0454 22.7478H14.9827V26.1877L20.1321 27.5697L25.2507 26.1877L25.6478 20.7054H9.88569L8.83923 7.31725H31.161L30.824 11.6288Z" fill="#D9CAFC"/>
</g>
<defs>
<clipPath id="clip0_70_237">
<rect width="40" height="40" fill="white"/>
</clipPath>
</defs>
</svg>
