<svg width="50" height="50" viewBox="0 0 50 50" fill="none" xmlns="http://www.w3.org/2000/svg">
<g clip-path="url(#clip0_70_268)">
<path d="M28.1875 -0.00390625C30.9375 6.35938 18.3203 10.2891 17.1523 15.5938C16.0742 20.4609 24.6406 26.1211 24.6445 26.1211C23.3438 24.1055 22.4023 22.4414 21.0977 19.3047C18.8906 14 34.5312 9.20312 28.1875 -0.00390625ZM36.5508 8.8125C36.5508 8.8125 25.5039 9.51172 24.9414 16.582C24.6914 19.7305 27.8438 21.4102 27.9375 23.7031C28.0078 25.5703 26.0508 27.1289 26.0508 27.1289C26.0508 27.1289 29.6016 26.4609 30.7148 23.6055C31.9453 20.4375 28.3281 18.2734 28.6914 15.7383C29.043 13.3125 36.5508 8.8125 36.5508 8.8125ZM39.2305 25.1445C38.0742 25.0938 36.7891 25.4766 35.625 26.3125C37.9062 25.8242 39.8359 27.2188 39.8359 28.8281C39.8359 32.4531 34.5977 35.8789 34.5977 35.8789C34.5977 35.8789 42.707 34.9531 42.707 29C42.707 26.5391 41.1523 25.2344 39.2305 25.1445ZM19.1836 25.1523C19.1836 25.1523 9.0625 25.0156 9.0625 27.8789C9.0625 30.8711 22.3164 31.082 31.7812 29.2383C31.7812 29.2383 34.3086 27.5078 34.9805 26.8633C28.7773 28.1289 14.6211 28.2969 14.6211 27.2031C14.6211 26.1914 19.1836 25.1523 19.1836 25.1523ZM16.7383 30.7227C15.1875 30.7227 12.8711 31.9219 12.8711 33.0781C12.8711 35.4023 24.5625 37.1953 33.2188 33.7969L30.2227 31.9609C24.3555 33.8398 13.5391 33.2383 16.7383 30.7227ZM18.1797 35.9219C16.0508 35.9219 14.6719 37.2344 14.6719 38.2031C14.6719 41.1875 27.3789 41.4883 32.4141 38.4531L29.2148 36.418C25.4531 38.0078 16.0078 38.2227 18.1797 35.9219ZM11.0898 38.625C7.62109 38.5547 5.36719 40.1133 5.36719 41.4062C5.36328 48.2812 40.8906 47.9492 40.8906 40.9219C40.8906 39.7578 39.5156 39.2031 39.0195 38.9375C41.9219 45.6562 9.96875 45.1367 9.96875 41.1719C9.96875 40.2695 12.3125 39.3828 14.4922 39.8086L12.6445 38.7578C12.1016 38.6758 11.582 38.6328 11.0898 38.625ZM44.6367 43.25C39.2344 48.3672 25.5469 50.2344 11.7812 47.0742C25.543 52.7031 44.5664 49.5352 44.6367 43.25Z" fill="#D9CAFC"/>
</g>
<defs>
<clipPath id="clip0_70_268">
<rect width="50" height="50" fill="white"/>
</clipPath>
</defs>
</svg>
