<svg width="23" height="23" viewBox="0 0 23 23" fill="none" xmlns="http://www.w3.org/2000/svg">
<g clip-path="url(#clip0_69_35)">
<path d="M11.5 0.479248C5.14625 0.479248 0 5.53925 0 11.7799C0 16.7738 3.29475 21.0087 7.86312 22.5017C8.43812 22.6081 8.64896 22.2583 8.64896 21.9584C8.64896 21.69 8.63937 20.979 8.63458 20.0369C5.43567 20.7183 4.761 18.5208 4.761 18.5208C4.23775 17.2165 3.48162 16.8677 3.48162 16.8677C2.43992 16.1672 3.56212 16.1815 3.56212 16.1815C4.71692 16.2601 5.32354 17.3459 5.32354 17.3459C6.34896 19.0738 8.0155 18.5745 8.67292 18.286C8.77642 17.5548 9.07254 17.0575 9.40125 16.7747C6.84729 16.492 4.163 15.5203 4.163 11.1905C4.163 9.95716 4.60862 8.949 5.34654 8.15837C5.21717 7.87279 4.82904 6.72375 5.44717 5.16742C5.44717 5.16742 6.41029 4.86458 8.60967 6.32604C9.52967 6.07496 10.5072 5.95037 11.4847 5.94462C12.4622 5.95037 13.4397 6.07496 14.3597 6.32604C16.5447 4.86458 17.5078 5.16742 17.5078 5.16742C18.1259 6.72375 17.7378 7.87279 17.6228 8.15837C18.3559 8.949 18.8015 9.95716 18.8015 11.1905C18.8015 15.5318 16.1134 16.4872 13.5547 16.7652C13.9572 17.1044 14.3309 17.7973 14.3309 18.8562C14.3309 20.3685 14.3165 21.5837 14.3165 21.9507C14.3165 22.2468 14.5178 22.6005 15.1072 22.4874C19.7081 21.0039 23 16.7661 23 11.7799C23 5.53925 17.8509 0.479248 11.5 0.479248Z" fill="#6932F5"/>
</g>
<defs>
<clipPath id="clip0_69_35">
<rect width="23" height="23" fill="white"/>
</clipPath>
</defs>
</svg>
