<svg xmlns="http://www.w3.org/2000/svg" xmlns:xlink="http://www.w3.org/1999/xlink" xmlns:svgjs="http://svgjs.com/svgjs" version="1.1" width="512" height="512" x="0" y="0" viewBox="0 0 50 50" style="enable-background:new 0 0 512 512" xml:space="preserve" class=""><g><g stroke-linecap="round" stroke-linejoin="round" stroke-miterlimit="10"><g stroke="#682f2a"><path fill="#425060" d="M1.5 42.6c.3 2 1.6 3.5 3.2 3.5h40.6c1.6 0 3-1.5 3.2-3.5z" data-original="#425060"/><path fill="#f4f4f4" d="M41.9 16.9H8.1c-1.1 0-2 .9-2 2v23.7H44V18.9c-.1-1.1-1-2-2.1-2z" data-original="#f4f4f4" class=""/><path fill="#3f3047" d="M36.9 28.5 32.4 25c-.7-.5-1.6-.4-2.1.3s-.4 1.6.3 2.1l3 2.3-3 2.3c-.7.5-.8 1.4-.3 2.1.3.4.7.6 1.2.6.3 0 .6-.1.9-.3l4.5-3.5c.4-.3.6-.7.6-1.2 0-.4-.2-.9-.6-1.2zM19.5 32l-3-2.3 3-2.3c.7-.5.8-1.4.3-2.1s-1.4-.8-2.1-.3l-4.5 3.5c-.4.3-.6.7-.6 1.2s.2.9.6 1.2l4.5 3.5c.3.2.6.3.9.3.5 0 .9-.2 1.2-.6.4-.7.3-1.6-.3-2.1zM28 21.8c-.8-.3-1.6.1-1.9.9l-4.9 13c-.3.8.1 1.6.9 1.9.2.1.4.1.5.1.6 0 1.2-.4 1.4-1l4.9-13c.2-.7-.1-1.6-.9-1.9z" data-original="#fa4968" class="" opacity="1"/><path fill="#5171a5" d="M36.6 13.7v3.2h-6.8c.1-.4.2-.9.2-1.4 0-2.8-2.2-5-5-5s-5 2.3-5 5c0 .5.1.9.2 1.4h-6.8v-3.2H16c.2-1.2.7-2.3 1.3-3.2l-1.8-1.9L18.1 6 20 7.9c1-.6 2.1-1.1 3.2-1.3V3.9h3.6v2.6c1.2.3 2.3.8 3.2 1.4L31.9 6l2.6 2.6-1.8 1.9c.6.9 1.1 2 1.3 3.2z" data-original="#6cd8d5" class="" opacity="1"/></g><g fill="none" stroke="#fff" opacity=".2"><path d="M8 44.6h-.9M13.2 44.6H9.9" fill=""/></g></g></g></svg>