<svg xmlns="http://www.w3.org/2000/svg" xmlns:xlink="http://www.w3.org/1999/xlink" xmlns:svgjs="http://svgjs.com/svgjs" version="1.1" width="512" height="512" x="0" y="0" viewBox="0 0 24 24" style="enable-background:new 0 0 512 512" xml:space="preserve" class=""><g><path fill="#5171a5" d="M22.75 4v1.25H1.25V4c0-1.52 1.23-2.75 2.75-2.75h16c1.52 0 2.75 1.23 2.75 2.75z" data-original="#5384bf" opacity="1" class=""/><path fill="#98b9ab" d="M1.25 6.75V20c0 1.52 1.23 2.75 2.75 2.75h16c1.52 0 2.75-1.23 2.75-2.75V6.75zm7.61 9.22c.3.29.3.77 0 1.06-.14.15-.34.22-.53.22s-.38-.07-.53-.22l-2.5-2.5a.754.754 0 0 1 0-1.06l2.5-2.5c.3-.29.77-.29 1.06 0 .3.29.3.77 0 1.06L6.89 14zm5.08-5.75-2.45 8c-.09.32-.39.53-.71.53a.75.75 0 0 1-.72-.97l2.45-8a.748.748 0 1 1 1.43.44zm4.76 4.31-2.5 2.5c-.15.15-.34.22-.53.22a.71.71 0 0 1-.53-.22c-.3-.29-.3-.77 0-1.06L17.11 14l-1.97-1.97c-.3-.29-.3-.77 0-1.06.29-.29.76-.29 1.06 0l2.5 2.5c.29.29.29.77 0 1.06z" data-original="#021e38" class="" opacity="1"/></g></svg>