<svg xmlns="http://www.w3.org/2000/svg" xmlns:xlink="http://www.w3.org/1999/xlink" xmlns:svgjs="http://svgjs.com/svgjs" version="1.1" width="512" height="512" x="0" y="0" viewBox="0 0 682.667 682.667" style="enable-background:new 0 0 512 512" xml:space="preserve" class=""><g><defs><clipPath id="a" clipPathUnits="userSpaceOnUse"><path d="M0 512h512V0H0Z" fill="#ffffff" data-original="#000000" opacity="1" class=""/></clipPath></defs><g clip-path="url(#a)" transform="matrix(1.33333 0 0 -1.33333 0 682.667)"><path d="M0 0a101.627 101.627 0 0 0 0 45.39c8.363 36.499-4.025 74.64-32.24 99.258l-.026.023a101.606 101.606 0 0 0-26.635 36.64l-.064.148c-14.685 34.371-47.055 57.905-84.28 61.274l-.247.022a101.61 101.61 0 0 0-42.901 13.936l-.258.154c-32.07 19.133-72.05 19.133-104.12 0l-.259-.154a101.6 101.6 0 0 0-42.901-13.936l-.246-.022c-37.225-3.369-69.595-26.903-84.281-61.274l-.063-.148a101.606 101.606 0 0 0-26.635-36.64l-.026-.023c-28.215-24.618-40.604-62.759-32.24-99.258v-.001a101.622 101.622 0 0 0 0-45.389c-8.364-36.5 4.025-74.641 32.24-99.259l.026-.022a101.615 101.615 0 0 0 26.635-36.64l.064-.149c14.685-34.371 47.055-57.904 84.28-61.273l.246-.022a101.614 101.614 0 0 0 42.901-13.936l.259-.155c32.07-19.132 72.05-19.132 104.12 0l.259.155a101.614 101.614 0 0 0 42.901 13.936l.246.022c37.225 3.369 69.595 26.902 84.28 61.273l.064.149a101.615 101.615 0 0 0 26.635 36.64l.026.022C-4.025-74.64 8.363-36.499 0 0Z" style="fill-opacity:1;fill-rule:nonzero;stroke:none" transform="translate(494.711 233.305)" fill="#e57c40" data-original="#edb798" class="" opacity="1"/><path d="m0 0-.063.149a101.63 101.63 0 0 1-26.636 36.64l-.025.022C-54.94 61.429-67.328 99.57-58.965 136.07a101.593 101.593 0 0 1 0 45.389c-8.363 36.5 4.025 74.641 32.24 99.259l.026.023a101.606 101.606 0 0 1 26.635 36.64l.064.148c14.686 34.371 47.055 57.905 84.28 61.273l.246.023a101.609 101.609 0 0 1 42.902 13.936l.259.154a101.59 101.59 0 0 0 68.768 12.966c-31.086 16.099-68.458 15.117-98.768-2.966l-.259-.154a101.609 101.609 0 0 0-42.902-13.936l-.246-.023C17.055 385.434-15.314 361.9-30 327.529l-.064-.148a101.606 101.606 0 0 0-26.635-36.64l-.026-.023c-28.215-24.618-40.603-62.759-32.24-99.259a101.593 101.593 0 0 0 0-45.389c-8.363-36.5 4.025-74.641 32.241-99.259l.025-.022a101.63 101.63 0 0 0 26.636-36.64L-30 10c13.681-32.02 42.712-54.625 76.715-60.293C26.126-39.626 9.421-22.049 0 0" style="fill-opacity:1;fill-rule:nonzero;stroke:none" transform="translate(106.254 87.235)" fill="#dd7c44" data-original="#e3986d" class="" opacity="1"/><path d="m0 0-6.07 12.045a38.461 38.461 0 0 1-27.04 20.453l-8.826 1.709a38.463 38.463 0 0 1-26.33-4.332l-9.189-5.228A38.465 38.465 0 0 1-96.677-4.666l-.355-3.296A38.461 38.461 0 0 1-83.436-41.61l10.9-9.098a38.461 38.461 0 0 1 35.214-7.454l13.54 3.868A38.464 38.464 0 0 1 0 0" style="fill-opacity:1;fill-rule:nonzero;stroke:none" transform="translate(390.902 384.09)" fill="#d97c40" data-original="#d97c40" class=""/><path d="m0 0-4.973 9.868a31.516 31.516 0 0 1-22.154 16.758l-7.231 1.399a31.509 31.509 0 0 1-21.572-3.548l-7.529-4.284A31.514 31.514 0 0 1-79.207-3.823l-.291-2.7a31.513 31.513 0 0 1 11.139-27.568l8.931-7.454a31.513 31.513 0 0 1 28.85-6.107l11.093 3.169A31.514 31.514 0 0 1 0 0" style="fill-opacity:1;fill-rule:nonzero;stroke:none" transform="translate(186.264 147.597)" fill="#d97c40" data-original="#d97c40" class=""/><path d="m0 0-5.026 4.308a26.853 26.853 0 0 1-23.988 5.663l-3.679-.92A26.85 26.85 0 0 1-50.359-5.32l-1.761-3.646c-5.801-12.01-1.908-26.458 9.143-33.926l4.288-2.898a26.852 26.852 0 0 1 27.247-1.667l6.179 3.155A26.854 26.854 0 0 1 0 0" style="fill-opacity:1;fill-rule:nonzero;stroke:none" transform="translate(157.891 344.332)" fill="#d97c40" data-original="#d97c40" class=""/><path d="m0 0 5.026 4.308a26.853 26.853 0 0 0 23.988 5.663l3.679-.92A26.85 26.85 0 0 0 50.359-5.32l1.761-3.646c5.802-12.01 1.908-26.458-9.143-33.926l-4.288-2.898a26.852 26.852 0 0 0-27.247-1.667l-6.179 3.155A26.854 26.854 0 0 0 0 0" style="fill-opacity:1;fill-rule:nonzero;stroke:none" transform="translate(337.929 167.275)" fill="#d97c40" data-original="#d97c40" class=""/><path d="M0 0v-16.034" style="stroke-width:15;stroke-linecap:round;stroke-linejoin:round;stroke-miterlimit:10;stroke-dasharray:none;stroke-opacity:1" transform="translate(167.404 258.297)" fill="none" stroke="#ffffff" stroke-width="15" stroke-linecap="round" stroke-linejoin="round" stroke-miterlimit="10" stroke-dasharray="none" stroke-opacity="" data-original="#000000" opacity="1"/><path d="M0 0v-16.034" style="stroke-width:15;stroke-linecap:round;stroke-linejoin:round;stroke-miterlimit:10;stroke-dasharray:none;stroke-opacity:1" transform="translate(344.596 258.297)" fill="none" stroke="#ffffff" stroke-width="15" stroke-linecap="round" stroke-linejoin="round" stroke-miterlimit="10" stroke-dasharray="none" stroke-opacity="" data-original="#000000" opacity="1"/><path d="M0 0c-5.159-5.902-13.038-9.674-21.867-9.674-8.828 0-16.707 3.772-21.866 9.674" style="stroke-width:15;stroke-linecap:round;stroke-linejoin:round;stroke-miterlimit:10;stroke-dasharray:none;stroke-opacity:1" transform="translate(277.867 243.378)" fill="none" stroke="#ffffff" stroke-width="15" stroke-linecap="round" stroke-linejoin="round" stroke-miterlimit="10" stroke-dasharray="none" stroke-opacity="" data-original="#000000" opacity="1"/><path d="M0 0a101.491 101.491 0 0 1 20.043 30.329l.063.149a101.617 101.617 0 0 0 26.636 36.64l.026.022c28.214 24.618 40.603 62.759 32.24 99.259a101.593 101.593 0 0 0 0 45.389v.001c8.363 36.499-4.026 74.64-32.241 99.258l-.025.022a101.617 101.617 0 0 0-26.636 36.64l-.063.149c-14.686 34.371-47.056 57.904-84.28 61.273l-.247.023a101.6 101.6 0 0 0-42.901 13.936l-.259.154c-32.069 19.133-72.049 19.133-104.119 0l-.259-.155a101.617 101.617 0 0 0-42.901-13.935l-.247-.023a101.51 101.51 0 0 1-44.511-14.925" style="stroke-width:15;stroke-linecap:round;stroke-linejoin:round;stroke-miterlimit:10;stroke-dasharray:none;stroke-opacity:1" transform="translate(415.704 66.906)" fill="none" stroke="#ffffff" stroke-width="15" stroke-linecap="round" stroke-linejoin="round" stroke-miterlimit="10" stroke-dasharray="none" stroke-opacity="" data-original="#000000" opacity="1"/><path d="M0 0a101.502 101.502 0 0 1-17.378-27.434l-.063-.148a101.597 101.597 0 0 0-26.636-36.64l-.026-.023c-28.214-24.618-40.603-62.759-32.239-99.258v0a101.627 101.627 0 0 0 0-45.39h-.001c-8.363-36.5 4.026-74.641 32.241-99.259l.025-.022a101.606 101.606 0 0 0 26.636-36.64l.064-.149c14.685-34.37 47.055-57.904 84.279-61.273l.247-.022a101.614 101.614 0 0 0 42.901-13.936l.259-.155c32.07-19.132 72.05-19.132 104.12 0l.259.155a101.6 101.6 0 0 0 42.901 13.936l.246.022a101.51 101.51 0 0 1 41.892 13.345" style="stroke-width:15;stroke-linecap:round;stroke-linejoin:round;stroke-miterlimit:10;stroke-dasharray:none;stroke-opacity:1" transform="translate(93.631 442.198)" fill="none" stroke="#ffffff" stroke-width="15" stroke-linecap="round" stroke-linejoin="round" stroke-miterlimit="10" stroke-dasharray="none" stroke-opacity="" data-original="#000000" opacity="1"/><path d="m0 0-6.07 12.045a38.461 38.461 0 0 1-27.04 20.453l-8.826 1.709a38.463 38.463 0 0 1-26.33-4.332l-9.189-5.228A38.465 38.465 0 0 1-96.677-4.666l-.355-3.296A38.461 38.461 0 0 1-83.436-41.61l10.9-9.098a38.461 38.461 0 0 1 35.214-7.454l13.54 3.868A38.464 38.464 0 0 1 0 0Z" style="stroke-width:15;stroke-linecap:round;stroke-linejoin:round;stroke-miterlimit:10;stroke-dasharray:none;stroke-opacity:1" transform="translate(390.902 384.09)" fill="none" stroke="#ffffff" stroke-width="15" stroke-linecap="round" stroke-linejoin="round" stroke-miterlimit="10" stroke-dasharray="none" stroke-opacity="" data-original="#000000" opacity="1"/><path d="m0 0-4.973 9.868a31.516 31.516 0 0 1-22.154 16.758l-7.231 1.399a31.509 31.509 0 0 1-21.572-3.548l-7.529-4.284A31.514 31.514 0 0 1-79.207-3.823l-.291-2.7a31.513 31.513 0 0 1 11.139-27.568l8.931-7.454a31.513 31.513 0 0 1 28.85-6.107l11.093 3.169A31.514 31.514 0 0 1 0 0Z" style="stroke-width:15;stroke-linecap:round;stroke-linejoin:round;stroke-miterlimit:10;stroke-dasharray:none;stroke-opacity:1" transform="translate(186.264 147.597)" fill="none" stroke="#ffffff" stroke-width="15" stroke-linecap="round" stroke-linejoin="round" stroke-miterlimit="10" stroke-dasharray="none" stroke-opacity="" data-original="#000000" opacity="1"/><path d="m0 0-5.026 4.308a26.853 26.853 0 0 1-23.988 5.663l-3.679-.92A26.85 26.85 0 0 1-50.359-5.32l-1.761-3.646c-5.802-12.01-1.908-26.458 9.143-33.926l4.288-2.898a26.852 26.852 0 0 1 27.247-1.667l6.179 3.155A26.854 26.854 0 0 1 0 0Z" style="stroke-width:15;stroke-linecap:round;stroke-linejoin:round;stroke-miterlimit:10;stroke-dasharray:none;stroke-opacity:1" transform="translate(157.891 344.332)" fill="none" stroke="#ffffff" stroke-width="15" stroke-linecap="round" stroke-linejoin="round" stroke-miterlimit="10" stroke-dasharray="none" stroke-opacity="" data-original="#000000" opacity="1"/><path d="m0 0 5.026 4.308a26.853 26.853 0 0 0 23.988 5.663l3.679-.92A26.85 26.85 0 0 0 50.359-5.32l1.761-3.646c5.802-12.01 1.908-26.458-9.143-33.926l-4.288-2.898a26.852 26.852 0 0 0-27.247-1.667l-6.179 3.155A26.854 26.854 0 0 0 0 0Z" style="stroke-width:15;stroke-linecap:round;stroke-linejoin:round;stroke-miterlimit:10;stroke-dasharray:none;stroke-opacity:1" transform="translate(337.929 167.275)" fill="none" stroke="#ffffff" stroke-width="15" stroke-linecap="round" stroke-linejoin="round" stroke-miterlimit="10" stroke-dasharray="none" stroke-opacity="" data-original="#000000" opacity="1"/></g></g></svg>