<svg width="148" height="144" viewBox="0 0 148 144" fill="none" xmlns="http://www.w3.org/2000/svg">
<ellipse cx="74" cy="72" rx="74" ry="72" fill="#6932F5"/>
<path d="M104.5 96.5V74.525C104.5 63.725 102.175 55.475 89.575 55.475C83.5 55.475 79.45 58.775 77.8 61.925H77.65V56.45H65.725V96.5H78.175V76.625C78.175 71.375 79.15 66.35 85.6 66.35C91.975 66.35 92.05 72.275 92.05 76.925V96.425H104.5V96.5ZM45.475 56.45H57.925V96.5H45.475V56.45ZM51.7 36.5C47.725 36.5 44.5 39.725 44.5 43.7C44.5 47.675 47.725 50.975 51.7 50.975C55.675 50.975 58.9 47.675 58.9 43.7C58.9 39.725 55.675 36.5 51.7 36.5Z" fill="white"/>
</svg>
